<svg width="60" height="60" viewBox="0 0 60 60" fill="none" xmlns="http://www.w3.org/2000/svg">
<rect width="60" height="60" fill="#F5F5F5"/>
<rect width="428" height="926" transform="translate(-20 -20)" fill="white"/>
<path d="M-20 -20H408V200H40C6.86291 200 -20 173.137 -20 140V-20Z" fill="#FF886A"/>
<path d="M0 12C0 5.37258 5.37258 0 12 0H48C54.6274 0 60 5.37258 60 12V48C60 54.6274 54.6274 60 48 60H12C5.37258 60 0 54.6274 0 48V12Z" fill="white"/>
<path d="M22.6933 43.2108C21.9581 46.5929 25.2385 49.4587 28.4913 48.2759C30.5224 47.5373 32.7544 47.5727 34.7611 48.3754L38.0763 49.7015C40.0826 50.504 42.3654 50.1657 44.0528 48.8158L48.7883 45.0275C50.1862 43.9091 51 42.2159 51 40.4257V35.9352C51 34.2703 49.4064 33.0682 47.8055 33.5256C45.6801 34.1329 43.4079 33.2761 42.2126 31.4167L38.2151 25.1984C36.7718 22.9533 33.7028 22.4506 31.6187 24.1179L27.5013 27.4119C26.4258 28.2723 25.679 29.4766 25.3864 30.8225L22.6933 43.2108Z" fill="#FF886A"/>
<path d="M21 15C21 18.3137 18.3137 21 15 21C11.6863 21 9 18.3137 9 15C9 11.6863 11.6863 9 15 9C18.3137 9 21 11.6863 21 15Z" fill="#FF886A"/>
</svg>
